<?xml version="1.0" standalone="no"?>
<!DOCTYPE svg PUBLIC "-//W3C//DTD SVG 20010904//EN"
 "http://www.w3.org/TR/2001/REC-SVG-20010904/DTD/svg10.dtd">
<svg version="1.0" xmlns="http://www.w3.org/2000/svg"
 width="700.000000pt" height="700.000000pt" viewBox="0 0 700.000000 700.000000"
 preserveAspectRatio="xMidYMid meet">
<metadata>
Created by potrace 1.11, written by Peter Selinger 2001-2013
</metadata>
<g transform="translate(0.000000,700.000000) scale(0.100000,-0.100000)"
fill="#000000" stroke="none">
<path d="M1340 6697 c-14 -7 -104 -56 -200 -109 -96 -52 -204 -111 -240 -130
-36 -20 -81 -44 -100 -55 -19 -11 -100 -55 -180 -99 -80 -43 -167 -91 -195
-106 -27 -15 -69 -38 -92 -50 l-43 -22 0 -148 0 -148 145 0 145 0 -79 -157
c-43 -87 -174 -349 -290 -583 l-212 -425 2 -254 c1 -266 5 -297 54 -391 26
-51 112 -137 169 -169 97 -56 244 -74 329 -42 l27 11 1 -313 c4 -1583 3 -2034
-5 -2052 -5 -11 -136 -212 -292 -446 l-284 -425 0 -147 0 -147 3501 0 3500 0
-3 153 -3 152 -283 422 c-155 233 -286 433 -290 445 -6 20 -7 667 -3 2045 l1
311 44 -13 c55 -17 175 -12 233 9 144 51 250 167 288 314 12 50 15 112 15 302
l-1 240 -289 578 -288 577 144 3 144 3 0 150 c0 133 -2 150 -16 145 -8 -3 -13
-2 -10 2 4 7 -92 62 -343 198 -241 130 -398 216 -411 224 -8 6 -22 13 -30 17
-8 4 -71 37 -139 75 l-123 68 -2137 0 c-1738 0 -2141 -3 -2161 -13z"/>
</g>
</svg>
